inDegrees=no
num_controls=7
num_derivatives=13
num_iterations=149
num_multipliers=7
num_parameters=0
num_slacks=7
num_states=26
objective=5.169161
objective_accelerations=0.635330
objective_balance=0.020200
objective_effort=0.163289
objective_height=4.253143
objective_ligament=0.097199
solver_duration=1637.531460
status=Solve_Succeeded
success=true
DataType=double
version=3
OpenSimVersion=4.4-2022-07-23-0e9fedc
endheader
time	/jointset/ground_pelvis/pelvis_tilt/value	/jointset/ground_pelvis/pelvis_tx/value	/jointset/ground_pelvis/pelvis_ty/value	/jointset/hip_l/hip_flexion_l/value	/jointset/hip_l/hip_adduction_l/value	/jointset/hip_l/hip_rotation_l/value	/jointset/back/lumbar_extension/value	/jointset/patellofemoral_l/patellar_flexion_l/value	/jointset/knee_l/knee_flexion_l/value	/jointset/knee_l/knee_adduction_l/value	/jointset/knee_l/knee_rotation_l/value	/jointset/ankle_l/ankle_angle_l/value	/jointset/subtalar_l/subtalar_angle_l/value	/jointset/ground_pelvis/pelvis_tilt/speed	/jointset/ground_pelvis/pelvis_tx/speed	/jointset/ground_pelvis/pelvis_ty/speed	/jointset/hip_l/hip_flexion_l/speed	/jointset/hip_l/hip_adduction_l/speed	/jointset/hip_l/hip_rotation_l/speed	/jointset/back/lumbar_extension/speed	/jointset/patellofemoral_l/patellar_flexion_l/speed	/jointset/knee_l/knee_flexion_l/speed	/jointset/knee_l/knee_adduction_l/speed	/jointset/knee_l/knee_rotation_l/speed	/jointset/ankle_l/ankle_angle_l/speed	/jointset/subtalar_l/subtalar_angle_l/speed	/forceset/tau_hip_flexion_l	/forceset/tau_hip_adduction_l	/forceset/tau_hip_rotation_l	/forceset/tau_knee_flexion_l	/forceset/tau_ankle_angle_l	/forceset/tau_subtalar_angle_l	/forceset/tau_lumbar_extension	lambda_cid13_p0	lambda_cid13_p1	lambda_cid13_p2	lambda_cid13_p3	lambda_cid13_p4	lambda_cid13_p5	lambda_cid14_p0	/jointset/ground_pelvis/pelvis_tilt/accel	/jointset/ground_pelvis/pelvis_tx/accel	/jointset/ground_pelvis/pelvis_ty/accel	/jointset/hip_l/hip_flexion_l/accel	/jointset/hip_l/hip_adduction_l/accel	/jointset/hip_l/hip_rotation_l/accel	/jointset/back/lumbar_extension/accel	/jointset/patellofemoral_l/patellar_flexion_l/accel	/jointset/knee_l/knee_flexion_l/accel	/jointset/knee_l/knee_adduction_l/accel	/jointset/knee_l/knee_rotation_l/accel	/jointset/ankle_l/ankle_angle_l/accel	/jointset/subtalar_l/subtalar_angle_l/accel	gamma_cid13_p0	gamma_cid13_p1	gamma_cid13_p2	gamma_cid13_p3	gamma_cid13_p4	gamma_cid13_p5	gamma_cid14_p0
0	0.04643363372870643	0.1087553429254571	0.9028267635291876	0.1266917050730164	-0.3703551185712911	-0.2346831456961261	-0.2144974744115991	0.2051547269256616	0.2051547269256735	-0.1744959632455904	-0.169507730014424	0.09024399430361882	0.07880592105984129	0	0	0	0	0	0	0	0	0	0	0	0	0	0.1210615768440328	-0.09887876072853605	-0.01381061436949991	-0.2665156602556952	0.2062626746020794	-0.06046666139950888	-0.05095519482272143	37.08977187084663	20.679889513359	-4.621237081658445	-29.45081355251786	-440.9796256923361	-79.00881379839927	-26.57271346530836	-3.166453947466751	-0.7656127916101929	-0.7853699488942198	10.51178212382579	-0.04119854758320089	3.23452476801812	-3.487708238421194	9.980158713962565	9.980158713961876	2.451537448356459	-0.600131669154425	3.679339279372528	1.019566411954524	1.355097288866242e-08	6.18941989907895e-07	-1.573578491112161e-07	5.31495344130571e-08	1.499702458825581e-08	3.049363946957705e-07	8.679331214945482e-08
0.01	0.0462824465309961	0.1087173997499397	0.9027886649499369	0.1272026386451616	-0.3703562167842016	-0.2345138176617545	-0.2146754850162526	0.2056412533278888	0.2056412533278764	-0.174375223295264	-0.169525473027664	0.09042390765081046	0.07885663039746445	-0.03011839827358818	-0.007579608680440553	-0.007598480936688522	0.1017670442029813	-0.0002285600643511983	0.03373701014906368	-0.03534459004857221	0.09684812339382638	0.09684812339382581	0.02399811689414679	-0.003497042678232956	0.03577246801188325	0.01007264230972298	0.1175100226436798	-0.1017198908350375	-0.01289216231004772	-0.261259601925853	0.197263226355201	-0.05505599246366939	-0.04826487187623842	34.467501972348	18.51375877567704	-3.961302214942432	-27.67492923655188	-441.5907593524327	-83.02689350497214	-26.57213310990383	-2.916675346754189	-0.7527703122560202	-0.7438989296675977	9.946215589398989	-0.01508902833322212	3.424041279534737	-3.519204756028436	9.468548234663453	9.46854823466372	2.35155312501875	-0.2167962260259299	3.494688057167803	0.9906506192301995	1.072060208736678e-08	8.764035122458141e-07	-1.524364359432561e-07	8.528965995688878e-08	-1.487339873640775e-07	3.41221390022954e-07	1.245124259082771e-07
0.02	0.04583364683466217	0.1086039334064194	0.9026752192085973	0.1287186526635231	-0.3703598814562721	-0.2340109690977053	-0.2151992155949872	0.2070825427806276	0.2070825427806312	-0.1740189813131298	-0.1695766475993702	0.09095524317711913	0.07900597365393455	-0.0595224997252419	-0.01510463360059423	-0.01506943241781746	0.2010160892405017	-0.0005132918276333432	0.06670410594551279	-0.06914399481530388	0.1909526100904901	0.1909526100904929	0.04710040639131062	-0.006686311711196511	0.07028443582663564	0.01972678376941333	0.1139584684436883	-0.1045610209413318	-0.01197371025115402	-0.2560035435955109	0.1882637781085543	-0.04964532352753011	-0.04557454892972838	31.89088954052393	16.35384148748942	-3.31858889323886	-25.95864037328233	-441.392940529579	-86.86268500040548	-26.5701655178743	-3.0235945830801	-0.7546960395525886	-0.7598640577823133	10.00818229073355	-0.05243288736940019	3.080541897495219	-3.17867118205321	9.431431374529978	9.431431374530085	2.272371968959836	-0.5385769401004957	3.427239239946611	0.9358662419480641	7.890231286071141e-09	1.133865034583733e-06	-1.475150227752962e-07	1.174297855007205e-07	-3.124649993164107e-07	3.775063853501375e-07	1.622315396670993e-07
0.03	0.04509413887964923	0.1084153582976483	0.9024874551200577	0.1312152750652185	-0.3703665853671323	-0.2331841215971321	-0.2160529476651802	0.2094518719376764	0.2094518719376626	-0.1734359968824261	-0.1696598948462495	0.09182539991409458	0.07924992140126701	-0.08824499973201276	-0.02261322038355823	-0.02248002837234895	0.2978917830881562	-0.000826243375811318	0.09853400398777692	-0.1013588989647085	0.2824598317417154	0.2824598317417163	0.06934375963944367	-0.009890208172641657	0.1035229534329167	0.0290035584725686	0.1096754850407436	-0.099810592033219	-0.01085077445799699	-0.2500708236268122	0.1798918465560408	-0.05047055653215964	-0.04245054992982374	29.13992100940195	16.98448608466911	-3.179911965381866	-23.88700673612437	-441.3410370749246	-84.67175620727733	-26.56654018093393	-2.776454065285329	-0.7493412157146678	-0.7312169811984219	9.464775496299627	-0.02068550491959667	3.214560332000719	-3.206371993003188	8.942326525561079	8.942326525560786	2.177584344961095	-0.2004062138964966	3.238600724267884	0.9145403113061116	5.967525396896978e-09	1.261431675859795e-06	-1.451431857246104e-07	1.352822811173647e-07	-4.268512621839994e-07	3.907065496074596e-07	1.828168084403583e-07
0.04	0.04407143065341456	0.1081516170774392	0.9022256731485909	0.134668156918313	-0.3703764106367501	-0.2320429058012526	-0.217221523169186	0.2127226651042244	0.2127226651042275	-0.1726351254507854	-0.169773003100761	0.09302123036779693	0.0795848283409924	-0.1161625539711874	-0.0301378558881967	-0.02987300900326718	0.3922679795165592	-0.001137563579083772	0.1295777650063869	-0.1321126815789071	0.3712454119986291	0.3712454119986276	0.09067780657640803	-0.01265851322327803	0.1354191791711594	0.03791862224799409	0.1053925016379226	-0.09506016312516113	-0.009727838664397541	-0.2441381036581715	0.1715199150034973	-0.05129578953686344	-0.03932655092978223	26.43056541284456	17.62260398214891	-3.059287135184768	-21.86608478617623	-440.5449905901806	-82.30701111486106	-26.56059055102089	-2.862605429561079	-0.757905783887259	-0.7563409930596748	9.508282806883196	-0.05210661838831283	2.92331449276441	-2.886446875012115	8.887103095667623	8.887103095667612	2.090510706726059	-0.4514586579386945	3.158780866339187	0.8635240564021672	4.063534248178928e-09	1.38632007216551e-06	-1.428239172536622e-07	1.528401864262319e-07	-5.402201075446861e-07	4.034307379664341e-07	2.030488020592759e-07
0.05	0.04277295058684772	0.1078127110915888	0.9018898078601382	0.1390531051831225	-0.3703893694931936	-0.2305968759844252	-0.2186899020734725	0.2168685336907938	0.21686853369082	-0.1716254421560633	-0.1699133464560106	0.09452970226586938	0.08000721230158608	-0.1434113854221481	-0.03762805730867375	-0.03731253594067697	0.4842970518479456	-0.001448645287732018	0.1594849368285313	-0.1613287348601746	0.4574777038598372	0.4574777038598359	0.1110972709441693	-0.01533033795884615	0.1660725146667895	0.04651259780873809	0.1013690852109394	-0.09269840256298792	-0.008612368213724336	-0.2395150561698921	0.1642901747560665	-0.05006786118362584	-0.03638879958231239	24.20132521844963	17.32074505174781	-2.829667302207267	-20.35489326517998	-439.9767764139522	-81.98001152423915	-26.5515836059281	-2.637694883048692	-0.742254014609132	-0.7397405922529804	8.986532443436618	-0.01995857611827762	3.002991633963593	-2.904029892296956	8.423661238903671	8.423661238903776	1.993646398211542	-0.1631252565266327	2.988253180609427	0.8502966123527258	2.673517344407571e-09	1.370019880298389e-06	-1.589799492967049e-07	1.568596235252634e-07	-6.009871235448038e-07	4.102465533494302e-07	2.058519335184001e-07
0.06	0.04120564762973863	0.1073993677528382	0.9014791508926767	0.1443456067706911	-0.3704053090925314	-0.2288560598279781	-0.2204434105780926	0.2218631989975357	0.221863198997539	-0.1704163677983846	-0.1700780242335695	0.09633863617678405	0.0805141284790757	-0.1699271320805443	-0.04502532646825162	-0.04483134480496306	0.5737786440661425	-0.001733712156990829	0.1885350329316478	-0.1891386016459859	0.5410047560232948	0.5410047560232947	0.1305560191683439	-0.01752539770084477	0.1955115817398003	0.05482506562717002	0.09734566878407079	-0.09033664200080224	-0.00749689776344958	-0.2348920086814852	0.157060434508662	-0.04883993283036164	-0.03345104823477506	22.00987789785592	17.02435535977806	-2.614726549600961	-18.88674113653414	-438.7378151692724	-81.4964349935143	-26.5384836110072	-2.715988471048379	-0.7393193317072058	-0.7721973784349472	8.998786784245246	-0.04690365051045221	2.751899348958866	-2.605209575920972	8.346055156117497	8.346055156117647	1.898367478008698	-0.3561056592247462	2.915927181815561	0.8072225079398041	1.305141461476077e-09	1.347774905771359e-06	-1.759138887298104e-07	1.603090198575651e-07	-6.595393256771078e-07	4.168135951334377e-07	2.079212181497436e-07
0.07000000000000001	0.03937633516338995	0.1069124929621377	0.9009927093152814	0.1505212095653046	-0.3704239475298956	-0.2268309109569972	-0.2224675321053869	0.227680606662494	0.227680606662515	-0.1690172820206194	-0.1702642853972796	0.09843612814923362	0.08110290351877424	-0.195811971949385	-0.05233430392902991	-0.05248112349213269	0.6609195781419537	-0.00198307973002388	0.2163460140153519	-0.215460315895571	0.6220296980507781	0.6220296980507759	0.1490978142647824	-0.01964053552036388	0.2237837995658075	0.06289211641856518	0.09305613844373403	-0.08721239118730909	-0.006291897164361199	-0.2304127999159498	0.1499249893173689	-0.0479381778625842	-0.03035893121766087	19.81454699895696	16.88494451033606	-2.441535758689762	-17.41427597516737	-437.7640710487123	-80.63829833290976	-26.52025272297068	-2.506203424831648	-0.7243556876085044	-0.7651236541791868	8.508404627541671	-0.01248643213176222	2.773455010015047	-2.611844162272151	7.913610278666884	7.913610278666527	1.807794393810869	-0.1263300297070213	2.75246204701286	0.8005818760006191	9.185246021773157e-10	1.220211612994724e-06	-1.998127374334462e-07	1.52125721698877e-07	-6.754161037045128e-07	4.080349648789444e-07	1.967279695937596e-07
0.08	0.03729187996235248	0.1063529946499611	0.9004290188429498	0.1575555532823517	-0.3704447862672773	-0.2245321007707888	-0.2247481091377311	0.2342948430582666	0.2342948430582693	-0.167437636518179	-0.1704691203764379	0.100810260892751	0.08177117616863906	-0.2209556790194235	-0.0595500307634573	-0.06028112379220239	0.7455268285494873	-0.002173772160324466	0.2432672959766112	-0.2404297026569786	0.7003705021823827	0.7003705021823775	0.1666679640951896	-0.02124016079554156	0.250839735952596	0.0707245876604073	0.08876660810351547	-0.08408814037387566	-0.005086896565356001	-0.2259335911504058	0.1427895441260427	-0.04703642289488014	-0.02726681420040591	17.65275327489278	16.75104434487657	-2.28222629965821	-15.97392898594627	-436.190712494787	-79.63605385892998	-26.49561514919804	-2.567761911288124	-0.720669206436803	-0.8022417010149751	8.492050050589683	-0.03516862196398945	2.573959524469917	-2.334744078285599	7.80922757694168	7.809227576941653	1.70403842480241	-0.253003150356414	2.672670893972049	0.7603065980292497	5.952470347258288e-10	1.085853590008437e-06	-2.241609351222775e-07	1.431919271214155e-07	-6.885396285638596e-07	3.982662912671284e-07	1.846790737353674e-07
